<svg id="Layer_3" height="512" viewBox="0 0 64 64" width="512" xmlns="http://www.w3.org/2000/svg" data-name="Layer 3"><path d="m13 32v23a3 3 0 0 0 3 3h32a3 3 0 0 0 3-3v-23z" fill="#5e3f38"/><path d="m51 55v-23h-35v23a3 3 0 0 0 3 3h29a3 3 0 0 0 3-3z" fill="#724c46"/><path d="m47 34a5 5 0 0 0 5-5v-16a3 3 0 0 0 -3-3h-34a3 3 0 0 0 -3 3v16a5 5 0 0 0 5 5z" fill="#e3c748"/><path d="m49 10h-34a2.983 2.983 0 0 0 -.86.14 2.983 2.983 0 0 0 -.14.86v16a5 5 0 0 0 5 5h30a4.95 4.95 0 0 0 2.375-.625 4.95 4.95 0 0 0 .625-2.375v-16a3 3 0 0 0 -3-3z" fill="#fae150"/><path d="m36 10v-2a2 2 0 0 0 -2-2h-4a2 2 0 0 0 -2 2v2h-4v-2a6 6 0 0 1 6-6h4a6 6 0 0 1 6 6v2z" fill="#5e3f38"/><path d="m30 6h4a2 2 0 0 1 2 2v2h4a6 6 0 0 0 -6-6h-4a6 6 0 0 0 -6 6h4v-2a2 2 0 0 1 2-2z" fill="#4c342d"/><path d="m16 58v4h6v-4" fill="#c1a837"/><path d="m42 58v4h6v-4" fill="#c1a837"/><path d="m19 29h6a0 0 0 0 1 0 0v7a3 3 0 0 1 -3 3 3 3 0 0 1 -3-3v-7a0 0 0 0 1 0 0z" fill="#aab1b7"/><circle cx="32" cy="22" fill="#5e3f38" r="5"/><path d="m13 55a3 3 0 0 0 3 3h32a3 3 0 0 0 3-3v-3h-38z" fill="#4c342d"/><path d="m20 35a3 3 0 0 0 3 3 2.965 2.965 0 0 0 1.554-.446 2.965 2.965 0 0 0 .446-1.554v-7h-5z" fill="#cacbcd"/><path d="m39 29h6a0 0 0 0 1 0 0v7a3 3 0 0 1 -3 3 3 3 0 0 1 -3-3v-7a0 0 0 0 1 0 0z" fill="#aab1b7"/><path d="m40 35a3 3 0 0 0 3 3 2.965 2.965 0 0 0 1.554-.446 2.965 2.965 0 0 0 .446-1.554v-7h-5z" fill="#cacbcd"/><path d="m52 32.31a5.962 5.962 0 0 0 1-3.31v-16a4 4 0 0 0 -4-4h-8v-1a7.009 7.009 0 0 0 -7-7h-4a7.008 7.008 0 0 0 -7 7v1h-8a4 4 0 0 0 -4 4v16a5.962 5.962 0 0 0 1 3.31v22.69a4 4 0 0 0 3 3.858v3.142a1 1 0 0 0 1 1h6a1 1 0 0 0 1-1v-3h18v3a1 1 0 0 0 1 1h6a1 1 0 0 0 1-1v-3.142a4 4 0 0 0 3-3.858zm-38 1.878a5.958 5.958 0 0 0 3 .812h1v1a4 4 0 0 0 8 0v-1h12v1a4 4 0 0 0 8 0v-1h1a5.958 5.958 0 0 0 3-.812v16.812h-36zm6 1.812v-6h4v6a2 2 0 0 1 -4 0zm20 0v-6h4v6a2 2 0 0 1 -4 0zm-15-28a5.006 5.006 0 0 1 5-5h4a5.007 5.007 0 0 1 5 5v1h-2v-1a3 3 0 0 0 -3-3h-4a3 3 0 0 0 -3 3v1h-2zm10 1h-6v-1a1 1 0 0 1 1-1h4a1 1 0 0 1 1 1zm-22 4a2 2 0 0 1 2-2h34a2 2 0 0 1 2 2v16a4 4 0 0 1 -4 4h-1v-4a1 1 0 0 0 -1-1h-6a1 1 0 0 0 -1 1v4h-12v-4a1 1 0 0 0 -1-1h-6a1 1 0 0 0 -1 1v4h-1a4 4 0 0 1 -4-4zm8 48h-4v-2h4zm22 0v-2h4v2zm5-4h-32a2 2 0 0 1 -2-2v-2h36v2a2 2 0 0 1 -2 2z"/><path d="m32 28a6 6 0 1 0 -6-6 6.006 6.006 0 0 0 6 6zm0-10a4 4 0 1 1 -4 4 4 4 0 0 1 4-4z"/></svg>